# xmcd
#
# Track frame offsets:
#	151
#	15246
#	32878
#	48561
#	69866
#	85515
#	100638
#	113089
#	127046
#	142832
#	152408
#	164413
#
# Disc length: 2414 seconds
#
# Revision: 0
# Processed by: cddbd v1.4PL0 Copyright (c) Steve Scherf et al.
# Submitted via: dBpowerAMP V4.0
#
DISCID=86096c0c
DTITLE=Jeff Steinberg (Arranged By) - Classic Riverboat Songs
DYEAR=1900
DGENRE=Ragtime
TTITLE0=Easy Winners
TTITLE1=Up A Lazy River
TTITLE2=Waiting For The Robert E. Lee
TTITLE3=Solace
TTITLE4=When The Saints Go Marching In
TTITLE5=The Entertainer
TTITLE6=Beautiful Dreamer
TTITLE7=Maple Leaf Rag
TTITLE8=Old Folks At Home
TTITLE9=Oh Suzanna
TTITLE10=My Old Kentucky Home
TTITLE11=Mississippi Mud
EXTD=
EXTT0=
EXTT1=
EXTT2=
EXTT3=
EXTT4=
EXTT5=
EXTT6=
EXTT7=
EXTT8=
EXTT9=
EXTT10=
EXTT11=
PLAYORDER=
